HIERARCHY
ROOT ui
{
	 OFFSET 0 0 0
	 CHANNELS 3 XPosition YPosition Z Position
	 EndSite
	 {
	 OFFSET 0 -1 0
	 }
}
ROOT li
{
	 OFFSET 0 0 0
	 CHANNELS 3 XPosition YPosition Z Position
	 EndSite
	 {
	 OFFSET 0 -1 0
	 }
}
ROOT ul
{
	 OFFSET 0 0 0
	 CHANNELS 3 XPosition YPosition Z Position
	 EndSite
	 {
	 OFFSET 0 -1 0
	 }
}
ROOT ll
{
	 OFFSET 0 0 0
	 CHANNELS 3 XPosition YPosition Z Position
	 EndSite
	 {
	 OFFSET 0 -1 0
	 }
}
ROOT tt
{
	 OFFSET 0 0 0
	 CHANNELS 3 XPosition YPosition Z Position
	 EndSite
	 {
	 OFFSET 0 -1 0
	 }
}
ROOT tb
{
	 OFFSET 0 0 0
	 CHANNELS 3 XPosition YPosition Z Position
	 EndSite
	 {
	 OFFSET 0 -1 0
	 }
}
ROOT td
{
	 OFFSET 0 0 0
	 CHANNELS 3 XPosition YPosition Z Position
	 EndSite
	 {
	 OFFSET 0 -1 0
	 }
}
ROOT v
{
	 OFFSET 0 0 0
	 CHANNELS 3 XPosition YPosition Z Position
	 EndSite
	 {
	 OFFSET 0 -1 0
	 }
}
ROOT bn
{
	 OFFSET 0 0 0
	 CHANNELS 3 XPosition YPosition Z Position
	 EndSite
	 {
	 OFFSET 0 -1 0
	 }
}
MOTION
Frames: 24
Frame Time: 0.002
-0.004241927146911621	-0.001688256025314331	0		0.5128272705078125	-2.33358984375	0		-1.12325048828125	0.003770875930786133	0		-0.7373715209960937	-2.254665283203125	0		1.49366162109375	-0.6474055786132813	0		3.1922724609375	0.026724220275878906	0		4.70785986328125	0.1608583221435547	0		5.600953125	0.11229967498779297	0		-0.23133406066894532	5.91920703125	0		
0.013220890045166016	-9.87280011177063E-4	0		0.5304069213867187	-2.32787548828125	0		-1.0428695068359375	-0.003256921052932739	0		-0.6649194946289062	-2.26059423828125	0		1.4931314697265625	-0.6474652099609375	0		3.19150244140625	0.006710504055023193	0		4.70815283203125	0.14687298583984376	0		5.603474609375	0.12441165161132813	0		-0.24999143981933594	5.9233017578125	0		
-0.00628245496749878	0.006112527847290039	0		0.48890557861328127	-2.32551904296875	0		-1.1103587646484374	0.005349391937255859	0		-0.73231005859375	-2.24797900390625	0		1.501686279296875	-0.636640380859375	0		3.204185302734375	0.030531150817871094	0		4.7107998046875	0.1678411865234375	0		5.61017919921875	0.12079838562011719	0		-0.21567404174804689	5.926796875	0		
0.024064714431762696	0.0016511240005493164	0		0.5552463989257812	-2.335367431640625	0		-1.03193701171875	0.007332395076751709	0		-0.7328673095703125	-2.24811376953125	0		1.5041378173828126	-0.6327594604492187	0		3.1804580078125	0.019737905502319335	0		4.70204638671875	0.15491517639160157	0		5.6026337890625	0.12445391845703126	0		-0.23349803161621094	5.9188623046875	0		
-0.01154416847229004	0.002914623975753784	0		0.47886309814453126	-2.3176416015625	0		-1.1156314697265626	0.0011053849458694458	0		-0.735466552734375	-2.2502294921875	0		1.497451416015625	-0.6397862548828125	0		3.17983544921875	0.019677762985229493	0		4.7014208984375	0.15488528442382812	0		5.60641650390625	0.11220616912841797	0		-0.23423773193359376	5.918734375	0		
0.013824097633361817	0.002502090930938721	0		0.5301942749023437	-2.32533154296875	0		-1.0453099365234375	-0.0038227739334106446	0		-0.7380892944335937	-2.25334619140625	0		1.493788818359375	-0.643851806640625	0		3.1942041015625	0.019443735122680664	0		4.7007880859375	0.1548439178466797	0		5.598837890625	0.11235062408447266	0		-0.21986466979980468	5.9284384765625	0		
-0.011894281387329102	-0.00534817886352539	0		0.4914481201171875	-2.339030029296875	0		-1.1209261474609375	-0.0021402759552001955	0		-0.7386847534179688	-2.253484130859375	0		1.49316748046875	-0.6439539184570312	0		3.1886494140625	0.026423643112182617	0		4.70913134765625	0.1526945343017578	0		5.605498046875	0.10690572357177734	0		-0.25464495849609375	5.92368310546875	0		
0.01256473159790039	0.002251456022262573	0		0.5129629516601563	-2.329390380859375	0		-1.1134771728515624	0.004630303859710693	0		-0.7372468872070312	-2.250641845703125	0		1.495593017578125	-0.6400904541015625	0		3.18287890625	0.013400513648986817	0		4.70850146484375	0.15263758850097656	0		5.60085205078125	0.12424040985107422	0		-0.2213050079345703	5.9281806640625	0		
-0.010018447875976562	0.005371219158172608	0		0.47852044677734373	-2.316133056640625	0		-1.1140946044921876	0.0044941377639770505	0		-0.7358134155273437	-2.24879541015625	0		1.4980166015625	-0.6372260131835937	0		3.19232666015625	0.01920968246459961	0		4.70297021484375	0.16063104248046875	0		5.60754541015625	0.123962890625	0		-0.22101004028320312	5.927044921875	0		
0.016290287017822265	-0.0030416419506073	0		0.536744384765625	-2.334890625	0		-1.114696533203125	0.0043641929626464845	0		-0.7384110717773438	-2.25089892578125	0		1.494389404296875	-0.640292724609375	0		3.191724609375	0.01912948799133301	0		4.69830126953125	0.15461253356933594	0		5.59998583984375	0.12406043243408203	0		-0.2226693115234375	5.92793603515625	0		
-0.015234207153320313	0.002186774015426636	0		0.500309814453125	-2.3236025390625	0		-1.048369384765625	-0.004492109775543213	0		-0.6779728393554687	-2.25168603515625	0		1.4907711181640626	-0.64435546875	0		3.19114306640625	0.01905099868774414	0		4.70263037109375	0.1464951629638672	0		5.59957275390625	0.12396566772460937	0		-0.23841986083984376	5.91798779296875	0		
0.01020844841003418	0.0017976579666137695	0		0.5066538391113281	-2.3347783203125	0		-1.12390966796875	-0.002784579038619995	0		-0.7415376586914062	-2.2541064453125	0		1.4902210693359375	-0.6444464721679688	0		3.185445068359375	0.006030628204345703	0		4.6902275390625	0.16056326293945314	0		5.60337841796875	0.10645741271972656	0		-0.2569833984375	5.922078125	0		
-0.008326967239379883	8.980510234832764E-4	0		0.4921358642578125	-2.3357177734375	0		-1.116359130859375	0.004022263050079346	0		-0.728079833984375	-2.257361572265625	0		1.4927440185546874	-0.6405650024414062	0		3.198181396484375	0.02981435012817383	0		4.7056123046875	0.15232746887207033	0		5.60592041015625	0.12012574768066406	0		-0.2414562225341797	5.9308037109375	0		
0.018180898666381836	5.140359997749329E-4	0		0.5137791137695312	-2.325044677734375	0		-1.11280615234375	0.007882511138916016	0		-0.7334244995117187	-2.24540087890625	0		1.4952901611328124	-0.63767724609375	0		3.17457177734375	0.018998079299926758	0		4.70020849609375	0.16032275390625	0		5.598455078125	0.12368170166015625	0		-0.22501812744140626	5.92752783203125	0		
0.012773265838623047	0.004487913131713867	0		0.5273497924804688	-2.324275634765625	0		-1.0423167724609375	0.0020202860832214354	0		-0.667988525390625	-2.257206298828125	0		1.4887657470703124	-0.6446840209960938	0		3.189119140625	0.01877014350891113	0		4.690767578125	0.16136509704589844	0		5.59522607421875	0.11155853271484376	0		-0.24060926818847655	5.91761083984375	0		
0.013274470329284667	-0.003595329999923706	0		0.5068622131347656	-2.332127197265625	0		-1.127701171875	0.004871562957763672	0		-0.7413311767578125	-2.251484619140625	0		1.488357177734375	-0.64475048828125	0		3.178642822265625	0.012820592880249023	0		4.70019091796875	0.14620401000976563	0		5.5978408203125	0.12350700378417968	0		-0.24104595947265625	5.91753662109375	0		
-0.018041297912597655	0.0016773960590362549	0		0.5064980163574219	-2.332191162109375	0		-1.0471328125	-0.0010823830366134643	0		-0.7067523803710938	-2.256934814453125	0		1.4879871826171875	-0.6448109741210938	0		3.183412109375	0.025710540771484373	0		4.699818359375	0.1461545867919922	0		5.60177734375	0.10601398468017578	0		-0.24526361083984374	5.93351318359375	0		
0.00762137222290039	0.0013343980312347412	0		0.4901258850097656	-2.336073974609375	0		-1.118420654296875	0.003630798101425171	0		-0.7400035400390625	-2.2496357421875	0		1.4906966552734375	-0.64089892578125	0		3.1779345703125	0.012715580940246583	0		4.698634765625	0.1601184844970703	0		5.600251953125	0.13711383056640625	0		-0.2256932373046875	5.9262353515625	0		
0.016307937622070313	1.830500066280365E-4	0		0.5099259643554688	-2.327344970703125	0		-1.11467919921875	0.007531339168548584	0		-0.7403007202148437	-2.249690673828125	0		1.4934285888671874	-0.6379818115234375	0		3.187697509765625	0.01855966377258301	0		4.694267578125	0.15411936950683594	0		5.60425390625	0.12308968353271485	0		-0.2269968719482422	5.92719287109375	0		
-0.018950429916381836	0.001516855001449585	0		0.471747802734375	-2.31897802734375	0		-1.1189940185546876	0.003525275945663452	0		-0.7504806518554688	-2.24163134765625	0		1.4870821533203125	-0.6449618530273438	0		3.19148046875	0.02347244071960449	0		4.69399560546875	0.15407846069335937	0		5.604060546875	0.12302112579345703	0		-0.20833319091796876	5.92193701171875	0		
0.0117484769821167	-0.003865626096725464	0		0.5234255981445313	-2.326589111328125	0		-1.04828662109375	-0.001294819951057434	0		-0.7058680419921874	-2.255166748046875	0		1.486838134765625	-0.6450049438476563	0		3.187181396484375	0.018474742889404296	0		4.6937509765625	0.1540380859375	0		5.5938466796875	0.11110758209228516	0		-0.27669894409179685	5.91163525390625	0		
-0.014471726417541504	-0.003623342990875244	0		0.47816278076171875	-2.33013916015625	0		-1.11946044921875	0.0034384679794311522	0		-0.743054931640625	-2.251804443359375	0		1.4835728759765625	-0.6490135498046875	0		3.181818115234375	0.005488426208496094	0		4.6915185546875	0.15301823425292968	0		5.59659521484375	0.12306903839111329	0		-0.2608122253417969	5.92141845703125	0		
0.00637962007522583	0.0011079870462417602	0		0.5069566345214844	-2.330495361328125	0		-1.1156190185546875	0.00735658597946167	0		-0.741237548828125	-2.24986474609375	0		1.5211495361328125	-0.6694678344726562	0		3.198931640625	0.034258670806884765	0		4.6953818359375	0.15893019104003905	0		5.60356787109375	0.11934278869628906	0		-0.2600299377441406	5.91936865234375	0		
-0.0077824220657348635	0.003223889112472534	0		0.49375732421875	-2.331391357421875	0		-1.111771240234375	0.010278054237365723	0		-0.7004071655273437	-2.248347900390625	0		1.4923038330078124	-0.6381928100585937	0		3.171573974609375	0.01851144790649414	0		4.69720849609375	0.1598624572753906	0		5.5963193359375	0.12290943908691407	0		-0.22811782836914063	5.92698291015625	0		
